<svg id="visual" viewBox="0 0 960 540" width="960" height="540" xmlns="http://www.w3.org/2000/svg" xmlns:xlink="http://www.w3.org/1999/xlink" version="1.1"><path d="M0 457L22.8 441.5C45.7 426 91.3 395 137 383.7C182.7 372.3 228.3 380.7 274 389C319.7 397.3 365.3 405.7 411.2 416.7C457 427.7 503 441.3 548.8 437.5C594.7 433.7 640.3 412.3 686 402.8C731.7 393.3 777.3 395.7 823 400.3C868.7 405 914.3 412 937.2 415.5L960 419L960 541L937.2 541C914.3 541 868.7 541 823 541C777.3 541 731.7 541 686 541C640.3 541 594.7 541 548.8 541C503 541 457 541 411.2 541C365.3 541 319.7 541 274 541C228.3 541 182.7 541 137 541C91.3 541 45.7 541 22.8 541L0 541Z" fill="#371da3" stroke-linecap="round" stroke-linejoin="miter"></path></svg>
